# xmcd CD database file
#
# Track frame offsets:
#	150
#	16042
#	34020
#	49850
#
# Disc length: 900 seconds
#
# Revision: 1
# Processed by: cddbd v1.5PL3 Copyright (c) Steve Scherf et al.
# Submitted via: CDex 1.51
#
DISCID=24038204
DTITLE=安全地帯 - 雨のち晴れ - ショコラ
DYEAR=2003
DGENRE=Vocal
TTITLE0=雨のち晴れ
TTITLE1=ショコラ
TTITLE2=雨のち晴れ（オリジナル・カラオケ）
TTITLE3=ショコラ（オリジナル・カラオケ）
EXTD=YEAR: 2003
EXTT0=
EXTT1=
EXTT2=
EXTT3=
PLAYORDER=
